<svg width="24" height="24" viewBox="0 0 24 24" fill="none" xmlns="http://www.w3.org/2000/svg">
<path fill-rule="evenodd" clip-rule="evenodd" d="M12.71 2.30001L20.42 10.18C20.7928 10.5666 21.0008 11.0829 21 11.62V20C21.0008 20.5119 20.8052 21.0046 20.4536 21.3767C20.102 21.7488 19.6211 21.9719 19.11 22H4.88999C4.37885 21.9719 3.89797 21.7488 3.54637 21.3767C3.19477 21.0046 2.99922 20.5119 2.99999 20V11.62C2.99715 11.3551 3.04695 11.0923 3.14652 10.8468C3.24609 10.6013 3.39343 10.3781 3.57999 10.19L11.29 2.30001C11.383 2.20628 11.4936 2.13189 11.6154 2.08112C11.7373 2.03035 11.868 2.00421 12 2.00421C12.132 2.00421 12.2627 2.03035 12.3846 2.08112C12.5064 2.13189 12.617 2.20628 12.71 2.30001ZM9.99999 16V20L10 22H14V19L14 16H9.99999ZM16 20H19V11.62L12 4.43001L4.99999 11.58V20H7.99999V15C7.99999 14.7348 8.10535 14.4804 8.29289 14.2929C8.48042 14.1054 8.73478 14 8.99999 14H15C15.2652 14 15.5196 14.1054 15.7071 14.2929C15.8946 14.4804 16 14.7348 16 15V20Z" fill="#D1D7E3"/>
</svg>
