<svg width="18" height="18" viewBox="0 0 16 16" fill="#f8da85" xmlns="http://www.w3.org/2000/svg">
    <path
        d="M8.00017 1.3335C6.68162 1.3335 5.39269 1.72449 4.29636 2.45703C3.20004 3.18957 2.34555 4.23077 1.84097 5.44894C1.33638 6.66711 1.20436 8.00756 1.4616 9.30077C1.71883 10.594 2.35377 11.7819 3.28612 12.7142C4.21847 13.6466 5.40636 14.2815 6.69956 14.5387C7.99277 14.796 9.33322 14.6639 10.5514 14.1594C11.7696 13.6548 12.8108 12.8003 13.5433 11.704C14.2758 10.6076 14.6668 9.31871 14.6668 8.00016C14.6668 7.12468 14.4944 6.25778 14.1594 5.44894C13.8243 4.6401 13.3333 3.90517 12.7142 3.28612C12.0952 2.66706 11.3602 2.176 10.5514 1.84097C9.74255 1.50593 8.87565 1.3335 8.00017 1.3335ZM8.00017 3.66683C8.19795 3.66683 8.39129 3.72548 8.55574 3.83536C8.72019 3.94524 8.84836 4.10142 8.92405 4.28415C8.99973 4.46687 9.01954 4.66794 8.98095 4.86192C8.94237 5.0559 8.84713 5.23408 8.70727 5.37394C8.56742 5.51379 8.38924 5.60903 8.19526 5.64761C8.00128 5.6862 7.80021 5.6664 7.61748 5.59071C7.43476 5.51502 7.27858 5.38685 7.1687 5.2224C7.05882 5.05795 7.00017 4.86461 7.00017 4.66683C7.00017 4.40161 7.10552 4.14726 7.29306 3.95972C7.4806 3.77219 7.73495 3.66683 8.00017 3.66683ZM9.3335 11.6668H6.66683C6.49002 11.6668 6.32045 11.5966 6.19543 11.4716C6.0704 11.3465 6.00017 11.177 6.00017 11.0002C6.00017 10.8234 6.0704 10.6538 6.19543 10.5288C6.32045 10.4037 6.49002 10.3335 6.66683 10.3335H7.3335V8.3335H6.66683C6.49002 8.3335 6.32045 8.26326 6.19543 8.13823C6.0704 8.01321 6.00017 7.84364 6.00017 7.66683C6.00017 7.49002 6.0704 7.32045 6.19543 7.19543C6.32045 7.0704 6.49002 7.00016 6.66683 7.00016H8.00017C8.17698 7.00016 8.34655 7.0704 8.47157 7.19543C8.59659 7.32045 8.66683 7.49002 8.66683 7.66683V10.3335H9.3335C9.51031 10.3335 9.67988 10.4037 9.8049 10.5288C9.92993 10.6538 10.0002 10.8234 10.0002 11.0002C10.0002 11.177 9.92993 11.3465 9.8049 11.4716C9.67988 11.5966 9.51031 11.6668 9.3335 11.6668Z" />
</svg>