<svg width="24" height="24" viewBox="0 0 24 24" fill="none" xmlns="http://www.w3.org/2000/svg">
<g clip-path="url(#clip0_438_4180)">
<path d="M7.99997 12C7.99951 11.7664 8.08089 11.5399 8.22997 11.36L13.23 5.36003C13.3997 5.15581 13.6436 5.02739 13.908 5.00301C14.1725 4.97863 14.4358 5.06029 14.64 5.23003C14.8442 5.39977 14.9726 5.64368 14.997 5.90811C15.0214 6.17253 14.9397 6.43581 14.77 6.64003L10.29 12L14.61 17.36C14.693 17.4623 14.7551 17.58 14.7925 17.7064C14.8299 17.8327 14.842 17.9652 14.8281 18.0962C14.8141 18.2272 14.7744 18.3542 14.7113 18.4699C14.6481 18.5855 14.5627 18.6875 14.46 18.77C14.3571 18.8616 14.2365 18.931 14.1056 18.9738C13.9748 19.0166 13.8365 19.0319 13.6994 19.0187C13.5623 19.0056 13.4295 18.9643 13.3091 18.8974C13.1888 18.8305 13.0835 18.7395 13 18.63L8.16997 12.63C8.04445 12.4449 7.9846 12.2231 7.99997 12V12Z" fill="#D1D7E3"/>
</g>
<defs>
<clipPath id="clip0_438_4180">
<rect width="24" height="24" fill="white"/>
</clipPath>
</defs>
</svg>
