<svg width="22" height="20" viewBox="0 0 29 48" fill="none" xmlns="http://www.w3.org/2000/svg">
    <path
        d="M21.5 0.666016H7.5C5.64348 0.666016 3.86301 1.40351 2.55025 2.71627C1.2375 4.02902 0.5 5.8095 0.5 7.66602V40.3327C0.5 42.1892 1.2375 43.9697 2.55025 45.2824C3.86301 46.5952 5.64348 47.3327 7.5 47.3327H21.5C23.3565 47.3327 25.137 46.5952 26.4497 45.2824C27.7625 43.9697 28.5 42.1892 28.5 40.3327V7.66602C28.5 5.8095 27.7625 4.02902 26.4497 2.71627C25.137 1.40351 23.3565 0.666016 21.5 0.666016ZM14.5 42.666C13.9231 42.666 13.3592 42.495 12.8796 42.1745C12.3999 41.854 12.0261 41.3985 11.8054 40.8655C11.5846 40.3326 11.5268 39.7461 11.6394 39.1803C11.7519 38.6146 12.0297 38.0949 12.4376 37.687C12.8455 37.279 13.3652 37.0013 13.931 36.8887C14.4968 36.7762 15.0832 36.8339 15.6162 37.0547C16.1491 37.2755 16.6046 37.6493 16.9251 38.1289C17.2456 38.6086 17.4167 39.1725 17.4167 39.7493C17.4167 40.5229 17.1094 41.2648 16.5624 41.8117C16.0154 42.3587 15.2735 42.666 14.5 42.666Z"
        fill="#fff" />
</svg>