<svg width="24" height="24" viewBox="0 0 24 24" fill="none" xmlns="http://www.w3.org/2000/svg">
<g clip-path="url(#clip0_438_4178)">
<path d="M16 12C16.0005 12.2336 15.9191 12.4601 15.77 12.64L10.77 18.64C10.6003 18.8442 10.3564 18.9726 10.092 18.997C9.82753 19.0214 9.56425 18.9397 9.36003 18.77C9.15581 18.6002 9.02739 18.3563 9.00301 18.0919C8.97863 17.8275 9.06029 17.5642 9.23003 17.36L13.71 12L9.39003 6.63997C9.30697 6.53768 9.24493 6.41998 9.2075 6.29364C9.17007 6.16731 9.15798 6.03482 9.17192 5.90379C9.18585 5.77276 9.22555 5.64578 9.28873 5.53014C9.3519 5.4145 9.4373 5.31249 9.54003 5.22997C9.64285 5.13839 9.76348 5.06903 9.89435 5.02624C10.0252 4.98344 10.1635 4.96814 10.3006 4.98128C10.4377 4.99443 10.5705 5.03573 10.6909 5.10262C10.8112 5.1695 10.9165 5.26052 11 5.36997L15.83 11.37C15.9555 11.5551 16.0154 11.7769 16 12V12Z" fill="#D1D7E3"/>
</g>
<defs>
<clipPath id="clip0_438_4178">
<rect width="24" height="24" fill="white"/>
</clipPath>
</defs>
</svg>
